<svg version="1.0" xmlns="http://www.w3.org/2000/svg"
 width="2500.000000pt" height="2501.000000pt" viewBox="0 0 2500.000000 2501.000000"
 preserveAspectRatio="xMidYMid meet">

<g transform="translate(0.000000,2501.000000) scale(0.100000,-0.100000)"
fill="#0e47cb" stroke="none">
<path d="M13095 22668 c-412 -17 -834 -125 -1220 -313 -1419 -691 -2109 -2327
-1614 -3827 310 -938 1047 -1680 1989 -2000 514 -175 1090 -211 1629 -103
1211 244 2164 1167 2450 2375 62 259 75 385 75 715 1 321 -7 407 -60 659 -106
503 -340 982 -672 1376 -106 127 -322 337 -452 440 -296 235 -662 429 -1030
544 -339 106 -701 151 -1095 134z m530 -852 c899 -146 1631 -802 1875 -1683
50 -181 71 -329 77 -539 6 -215 -5 -353 -43 -543 -187 -931 -947 -1665 -1889
-1825 -143 -24 -360 -38 -485 -31 -608 34 -1133 266 -1550 685 -355 355 -579
802 -657 1310 -24 159 -24 501 0 659 66 424 231 801 495 1131 351 438 878 744
1437 836 207 33 531 33 740 0z"/>
<path d="M13110 21159 c-876 -81 -1535 -833 -1497 -1709 11 -244 62 -442 172
-665 84 -169 174 -294 310 -430 282 -282 628 -441 1036 -477 148 -13 306 -3
458 28 201 41 448 147 618 267 132 93 324 289 412 421 123 185 206 380 252
593 30 141 37 419 15 571 -84 567 -460 1054 -987 1277 -242 102 -532 148 -789
124z m350 -850 c305 -78 546 -337 600 -645 20 -110 8 -290 -24 -389 -87 -268
-302 -473 -572 -546 -105 -29 -297 -31 -399 -5 -288 75 -515 296 -597 583 -32
112 -32 314 0 426 107 375 457 625 837 600 44 -3 114 -14 155 -24z"/>
<path d="M6958 16470 c-330 -53 -600 -259 -724 -553 -14 -33 -35 -95 -47 -136
-21 -75 -22 -89 -25 -1023 l-3 -947 -100 -71 c-313 -224 -598 -468 -909 -780
-441 -441 -739 -828 -1006 -1309 l-69 -124 -110 -22 c-347 -70 -660 -235 -919
-485 -286 -276 -466 -604 -547 -1000 l-24 -115 0 -830 c0 -827 0 -830 23 -944
61 -301 195 -592 375 -816 91 -112 275 -288 387 -367 121 -86 363 -206 505
-252 204 -64 418 -96 656 -96 l106 0 71 -92 c346 -455 885 -981 1349 -1318
l62 -45 1 -1377 c0 -981 3 -1392 11 -1430 27 -124 121 -242 236 -296 l58 -27
1510 0 1510 0 67 32 c88 41 160 113 201 201 l32 67 3 583 c1 320 6 582 11 582
5 0 92 -20 194 -45 724 -175 1513 -290 2397 -347 262 -17 1337 -17 1600 0 598
39 1157 103 1630 188 74 13 138 24 143 24 4 0 7 -211 7 -469 0 -441 1 -473 20
-534 36 -116 116 -204 235 -259 l50 -23 1489 -3 c1659 -3 1541 -7 1652 67 68
45 126 117 157 193 l22 53 5 1142 5 1142 110 67 c662 401 1266 939 1680 1499
495 668 814 1428 950 2268 60 369 79 653 72 1061 -7 425 -41 693 -137 1081
-92 372 -197 658 -375 1020 -223 454 -495 859 -839 1250 -115 131 -422 440
-561 564 -1280 1147 -3086 1925 -5165 2225 -351 51 -749 90 -1195 118 -269 17
-1225 17 -1505 0 -1196 -72 -2213 -250 -3248 -569 l-183 -56 -27 25 c-15 14
-279 265 -587 558 -308 293 -587 553 -620 578 -80 60 -221 127 -320 152 -92
24 -263 33 -347 20z m224 -887 c39 -38 355 -337 700 -665 717 -681 689 -659
852 -666 88 -4 96 -3 241 47 2016 694 4466 842 6603 400 2599 -538 4590 -1913
5340 -3689 212 -503 308 -956 319 -1505 9 -456 -26 -817 -119 -1225 -290
-1275 -1112 -2306 -2415 -3029 -167 -93 -234 -167 -267 -296 -14 -52 -16 -190
-16 -1087 l0 -1028 -985 0 -985 0 0 508 c0 561 -2 578 -63 681 -60 101 -165
171 -286 192 -72 13 -90 11 -356 -46 -605 -129 -1220 -211 -1925 -257 -263
-17 -1310 -17 -1560 0 -1054 73 -1939 223 -2785 472 -179 53 -235 62 -308 50
-173 -28 -315 -165 -346 -335 -7 -38 -11 -270 -11 -662 l0 -603 -985 0 -985 0
-2 1307 -3 1308 -23 57 c-32 79 -99 149 -244 254 -594 427 -1075 903 -1446
1430 -83 119 -123 156 -212 198 l-65 31 -315 6 c-325 6 -394 14 -522 58 -328
113 -588 392 -680 731 l-23 85 0 775 0 775 28 90 c95 308 283 530 561 665 128
62 236 89 401 101 138 10 171 17 249 56 88 45 134 102 223 283 397 802 1046
1514 1944 2133 147 100 218 173 251 255 l23 57 5 1055 c3 580 6 1056 8 1058
12 14 72 42 89 42 14 0 50 -26 95 -67z"/>
<path d="M12470 14370 c-896 -31 -1746 -144 -2483 -329 -106 -27 -214 -59
-240 -71 -160 -75 -258 -263 -228 -436 31 -177 159 -307 335 -344 74 -15 110
-10 329 45 1547 388 3558 415 5274 69 321 -64 560 -123 882 -216 161 -47 179
-50 260 -46 71 3 98 10 152 36 119 57 206 174 231 311 30 159 -67 352 -212
426 -56 29 -213 77 -470 145 -807 215 -1704 350 -2661 400 -270 14 -909 20
-1169 10z"/>
<path d="M7300 11936 c-207 -44 -392 -155 -525 -314 -66 -78 -155 -253 -182
-357 -25 -100 -25 -342 1 -440 45 -168 121 -300 241 -420 178 -177 390 -265
640 -265 249 0 465 89 640 265 175 174 265 392 265 640 0 251 -88 462 -265
640 -121 120 -253 196 -420 241 -82 22 -310 28 -395 10z"/>
</g>
</svg>
