<svg version="1.0" xmlns="http://www.w3.org/2000/svg"
 width="2500.000000pt" height="2501.000000pt" viewBox="0 0 2500.000000 2501.000000"
 preserveAspectRatio="xMidYMid meet">

<g transform="translate(0.000000,2501.000000) scale(0.100000,-0.100000)"
fill="#0e47cb" stroke="none">
<path d="M10395 18835 c-326 -53 -619 -201 -858 -434 -261 -254 -421 -577
-468 -946 -16 -133 -6 -370 22 -500 12 -55 22 -111 23 -124 1 -24 -143 -118
-981 -637 l-202 -125 -73 61 c-287 242 -680 373 -1068 357 -744 -31 -1359
-567 -1496 -1302 -28 -149 -26 -442 4 -583 35 -160 68 -256 138 -397 81 -164
172 -292 300 -419 431 -431 1066 -576 1644 -374 117 41 263 115 373 190 120
81 323 284 404 403 262 388 346 865 229 1303 l-15 54 77 48 c42 27 311 195
596 373 l520 324 65 -55 c170 -144 391 -257 616 -315 147 -38 233 -48 400 -48
263 0 488 54 721 172 l115 58 773 -721 773 -720 -42 -97 c-48 -109 -85 -225
-112 -351 -14 -67 -18 -130 -18 -300 1 -200 3 -223 29 -334 99 -422 335 -760
689 -990 609 -397 1420 -320 1951 184 233 221 396 518 460 835 34 170 37 425
7 590 -24 133 -78 297 -131 405 l-28 55 744 695 c410 382 760 708 779 724 25
21 38 26 47 18 33 -27 231 -117 326 -148 156 -51 308 -75 487 -75 272 0 479
48 716 166 432 216 731 606 841 1097 20 90 23 130 23 318 0 188 -3 228 -23
318 -48 212 -125 395 -243 572 -85 128 -291 334 -419 419 -274 182 -565 271
-890 271 -795 0 -1457 -576 -1571 -1368 -17 -123 -6 -422 20 -540 26 -118 74
-257 117 -344 l34 -67 -728 -678 c-400 -373 -748 -698 -775 -722 l-47 -44
-123 61 c-260 129 -499 181 -776 169 -240 -10 -445 -64 -668 -175 l-113 -56
-57 55 c-32 31 -359 336 -728 679 -368 343 -690 642 -714 666 l-44 42 41 94
c264 608 140 1294 -318 1758 -132 133 -250 218 -415 300 -252 125 -396 160
-675 166 -139 2 -221 -1 -285 -11z m480 -849 c250 -85 440 -292 502 -544 24
-97 21 -265 -6 -366 -56 -212 -221 -404 -425 -496 -97 -44 -185 -61 -304 -61
-298 0 -547 157 -677 426 -60 124 -79 219 -72 359 14 288 169 521 432 648 114
55 185 68 340 64 110 -2 142 -7 210 -30z m7491 23 c276 -50 514 -278 585 -559
18 -70 21 -104 17 -209 -5 -146 -31 -239 -100 -356 -53 -90 -173 -210 -265
-264 -229 -135 -534 -137 -763 -4 -83 49 -224 190 -273 273 -21 36 -50 101
-64 145 -25 73 -27 94 -28 235 0 144 2 161 28 235 87 249 280 429 532 495 81
22 239 26 331 9z m-11372 -2363 c482 -93 752 -623 541 -1061 -195 -406 -682
-553 -1073 -324 -76 45 -210 179 -253 254 -151 260 -145 563 15 804 169 254
474 383 770 327z m7631 -1180 c205 -54 390 -209 485 -405 97 -198 97 -458 0
-652 -114 -228 -323 -381 -575 -419 -151 -23 -291 1 -445 77 -80 39 -108 60
-185 137 -153 154 -214 290 -223 498 -3 88 0 135 13 195 63 288 296 518 585
579 81 17 262 12 345 -10z"/>
<path d="M9586 14040 c-120 -21 -250 -121 -302 -233 -13 -30 -29 -89 -34 -133
-7 -54 -10 -1271 -8 -3799 l3 -3720 23 -56 c49 -122 130 -206 244 -252 l53
-22 1045 -3 c776 -2 1059 0 1100 9 160 34 286 161 319 322 8 37 10 1155 9
3812 l-3 3760 -22 55 c-46 112 -130 193 -251 242 l-57 23 -1035 1 c-569 1
-1057 -2 -1084 -6z m1624 -4105 l0 -3285 -570 0 -570 0 0 3278 c0 1803 3 3282
7 3285 3 4 260 7 570 7 l563 0 0 -3285z"/>
<path d="M17167 14040 c-165 -28 -304 -166 -337 -335 -8 -44 -10 -1043 -8
-3810 l3 -3750 21 -51 c47 -115 133 -202 241 -246 l58 -23 1075 0 1075 0 58
23 c112 45 196 133 241 250 l21 57 3 3745 c1 2497 -1 3763 -8 3799 -32 176
-171 313 -346 341 -72 12 -2027 11 -2097 0z m1621 -4107 l2 -3283 -570 0 -570
0 0 3285 0 3285 568 -2 567 -3 3 -3282z"/>
<path d="M5777 11759 c-119 -28 -223 -112 -279 -226 l-33 -68 0 -2670 0 -2670
31 -65 c35 -73 99 -144 165 -183 101 -59 68 -58 1220 -55 l1054 3 67 32 c94
44 160 109 206 202 l37 75 0 2661 0 2661 -37 75 c-46 93 -112 158 -206 202
l-67 32 -1060 2 c-605 1 -1076 -3 -1098 -8z m1643 -2964 l0 -2145 -565 0 -565
0 0 2145 0 2145 565 0 565 0 0 -2145z"/>
<path d="M13357 11249 c-161 -38 -286 -173 -317 -340 -7 -36 -9 -842 -8 -2404
l3 -2350 21 -57 c45 -117 129 -205 241 -250 l58 -23 1055 -3 c1032 -2 1056 -2
1121 18 123 37 222 128 270 247 l24 58 0 2395 0 2395 -23 55 c-46 113 -129
196 -242 242 l-55 23 -1055 2 c-602 1 -1071 -3 -1093 -8z m1643 -2709 l0
-1890 -570 0 -570 0 0 1890 0 1890 570 0 570 0 0 -1890z"/>
</g>
</svg>
