<svg version="1.0" xmlns="http://www.w3.org/2000/svg"
 width="2501.000000pt" height="2500.000000pt" viewBox="0 0 2501.000000 2500.000000"
 preserveAspectRatio="xMidYMid meet">

<g transform="translate(0.000000,2500.000000) scale(0.100000,-0.100000)"
fill="#0e47cb" stroke="none">
<path d="M10985 19664 c-654 -33 -1226 -158 -1778 -388 -647 -270 -1193 -639
-1688 -1143 -254 -257 -450 -498 -632 -775 -263 -401 -494 -893 -622 -1329
l-38 -127 -96 -12 c-589 -72 -1148 -355 -1563 -789 -691 -724 -909 -1776 -563
-2717 58 -157 176 -388 273 -534 329 -495 801 -855 1362 -1040 271 -90 525
-130 820 -130 350 0 637 54 963 182 l127 50 108 -102 c543 -516 1218 -915
1945 -1149 163 -52 469 -131 592 -152 39 -7 74 -15 78 -19 7 -6 -77 -120 -88
-120 -2 0 -321 74 -709 165 -577 135 -718 165 -779 165 -86 0 -165 -24 -229
-69 -24 -16 -203 -191 -399 -388 -375 -377 -392 -397 -419 -512 -16 -69 -8
-169 21 -246 17 -47 38 -75 93 -130 l71 -70 940 -414 c517 -228 950 -424 962
-435 12 -12 202 -429 427 -938 223 -504 414 -934 425 -955 29 -56 118 -138
182 -168 82 -37 157 -48 237 -36 135 21 151 33 563 448 341 344 378 384 403
441 18 41 30 88 33 136 5 69 -4 115 -162 791 -109 467 -165 723 -159 731 12
18 2305 1876 2310 1872 2 -2 352 -862 779 -1912 426 -1049 789 -1927 805
-1950 124 -182 380 -229 568 -106 75 49 592 571 669 676 193 262 292 624 254
929 -8 68 -637 3140 -667 3261 -5 21 -3 21 188 27 292 9 494 56 746 177 211
102 360 209 528 382 112 115 156 169 227 278 148 229 243 483 283 760 23 159
15 450 -16 604 -47 237 -146 477 -277 675 l-70 105 117 160 c253 348 438 646
566 911 134 276 184 451 184 642 0 457 -252 862 -665 1068 -261 130 -543 163
-794 95 -300 -83 -751 -328 -1210 -657 l-76 -55 -23 79 c-107 363 -197 597
-351 908 -256 517 -533 905 -940 1318 -873 887 -2001 1416 -3236 1516 -137 11
-495 20 -600 15z m615 -850 c1873 -188 3409 -1579 3780 -3423 26 -126 29 -156
18 -166 -7 -7 -345 -305 -750 -664 -432 -381 -746 -651 -757 -651 -11 0 -932
189 -2048 420 -1115 230 -2062 424 -2103 431 -104 16 -351 5 -460 -20 -179
-41 -376 -131 -509 -232 -42 -32 -212 -194 -378 -361 -329 -330 -344 -350
-361 -476 -23 -163 54 -332 185 -409 24 -14 898 -373 1941 -797 1044 -424
1898 -775 1899 -781 1 -7 -1077 -1349 -1146 -1427 -14 -15 -400 33 -619 78
-849 174 -1677 640 -2260 1273 -137 149 -154 164 -225 197 -76 34 -157 46
-234 34 -77 -13 -89 -18 -228 -97 -204 -116 -448 -197 -675 -223 -148 -18
-415 -8 -554 20 -702 139 -1263 693 -1406 1388 -97 475 -2 961 269 1363 231
343 570 594 965 713 162 49 286 68 511 76 244 8 282 19 380 112 79 74 107 128
140 278 155 688 460 1302 924 1855 183 218 497 509 741 686 862 626 1905 909
2960 803z m6190 -3086 c133 -40 245 -177 257 -317 6 -66 -15 -141 -77 -276
-117 -255 -409 -701 -703 -1075 -63 -80 -505 -586 -982 -1125 -966 -1091 -925
-1039 -933 -1190 -4 -75 25 -222 444 -2240 415 -1997 448 -2167 448 -2255 -1
-106 -22 -176 -79 -265 -33 -51 -91 -112 -99 -104 -3 2 -344 840 -760 1862
-415 1022 -767 1880 -782 1908 -37 67 -101 124 -182 162 -119 55 -273 49 -382
-16 -39 -24 -2972 -2398 -3034 -2456 -82 -77 -126 -181 -126 -295 0 -57 35
-219 170 -796 l170 -725 -25 -24 c-16 -16 -28 -22 -34 -16 -5 6 -140 306 -299
668 -192 433 -307 682 -339 730 -83 126 -214 242 -348 309 -27 14 -333 150
-680 303 -346 153 -632 280 -634 282 -3 2 7 16 22 30 l26 27 738 -172 c407
-95 758 -172 783 -172 113 1 215 47 298 134 103 109 2436 2996 2464 3049 67
129 62 279 -16 411 -37 64 -120 132 -201 165 -64 27 -3636 1480 -3695 1503
-25 10 -25 10 30 59 93 84 208 129 332 129 51 0 621 -114 2245 -451 2391 -495
2236 -467 2366 -419 31 12 78 39 105 59 26 21 468 411 982 866 1117 990 1225
1078 1669 1370 268 176 441 273 597 335 126 50 172 55 264 28z m-306 -2800
c49 -116 67 -204 73 -353 4 -107 1 -161 -11 -229 -78 -412 -393 -732 -806
-818 -163 -34 -469 -12 -520 38 -13 13 -13 17 0 37 23 36 1221 1387 1230 1387
4 0 20 -28 34 -62z"/>
<path d="M18498 10550 c-511 -107 -886 -482 -995 -990 -25 -118 -25 -372 0
-490 26 -118 60 -218 113 -324 60 -119 120 -202 218 -304 247 -256 550 -385
906 -385 356 0 659 129 906 385 172 178 277 377 331 628 25 117 25 371 0 490
-82 383 -323 702 -663 875 -102 53 -233 96 -353 119 -117 22 -349 20 -463 -4z
m425 -848 c330 -163 327 -625 -5 -777 -122 -56 -239 -55 -362 3 -297 141 -331
551 -62 737 88 60 144 76 262 73 90 -3 107 -7 167 -36z"/>
</g>
</svg>
