<svg version="1.0" xmlns="http://www.w3.org/2000/svg"
 width="2501.000000pt" height="2500.000000pt" viewBox="0 0 2501.000000 2500.000000"
 preserveAspectRatio="xMidYMid meet">

<g transform="translate(0.000000,2500.000000) scale(0.100000,-0.100000)"
fill="#0e47cb" stroke="none">
<path d="M11119 20927 c-121 -51 -181 -107 -233 -216 l-31 -66 -3 -942 -2
-942 -718 -3 -717 -3 -72 -34 c-88 -41 -171 -123 -211 -208 l-27 -58 0 -1140
0 -1140 23 -128 c47 -258 123 -489 232 -703 301 -588 826 -1026 1460 -1217
272 -82 405 -97 918 -104 l422 -6 0 -1289 0 -1290 -78 119 c-298 449 -685 818
-1148 1093 -639 381 -1426 618 -2319 700 -216 20 -587 30 -728 21 -121 -8
-145 -13 -202 -40 -83 -39 -157 -112 -196 -195 -43 -91 -53 -200 -45 -485 18
-662 121 -1283 305 -1841 81 -243 138 -385 246 -605 202 -413 410 -710 710
-1011 297 -298 588 -505 995 -709 543 -272 1204 -454 1920 -529 146 -16 432
-36 502 -36 l38 0 0 -1745 c0 -1254 3 -1759 11 -1797 27 -124 121 -242 236
-296 52 -24 69 -27 168 -27 103 0 114 2 177 32 88 41 160 113 201 201 l32 67
3 858 c1 471 6 857 10 857 4 0 68 5 142 10 747 55 1413 226 1971 506 684 342
1181 839 1523 1523 339 677 526 1546 514 2391 l-3 245 -32 67 c-57 121 -151
199 -278 233 -103 26 -564 18 -875 -15 -975 -107 -1786 -408 -2390 -888 -126
-100 -352 -323 -453 -446 -45 -55 -92 -111 -104 -125 l-22 -26 -1 2238 0 2237
258 0 c604 1 906 57 1297 244 682 327 1174 958 1324 1701 46 227 46 235 46
1370 0 1034 -1 1082 -19 1138 -38 115 -130 212 -246 260 -55 22 -55 22 -767
25 l-713 3 0 898 c0 562 -4 918 -10 951 -25 130 -112 246 -229 303 -62 30 -72
32 -176 32 -103 0 -114 -2 -177 -32 -93 -44 -151 -100 -196 -191 l-37 -76 -3
-943 -2 -943 -830 0 -830 0 0 899 c0 561 -4 918 -10 951 -25 130 -113 246
-229 302 -58 28 -78 32 -166 35 -87 3 -107 1 -156 -20z m3971 -3761 c0 -762
-4 -890 -36 -1046 -124 -606 -611 -1098 -1215 -1228 -52 -12 -148 -26 -214
-31 -155 -14 -2066 -14 -2228 -1 -228 19 -387 63 -592 165 -449 222 -770 654
-855 1149 -19 112 -20 162 -20 937 l0 819 2580 0 2580 0 0 -764z m-6425 -4657
c1127 -123 2005 -524 2537 -1159 86 -103 227 -307 300 -435 287 -504 474
-1155 543 -1884 8 -91 15 -190 15 -221 l0 -57 -47 3 c-462 33 -763 78 -1096
163 -630 161 -1143 419 -1537 773 -356 320 -657 812 -845 1383 -131 395 -225
903 -251 1349 l-7 118 104 -6 c57 -4 185 -16 284 -27z m7651 -2326 c-3 -21 -8
-78 -11 -128 -38 -533 -192 -1128 -404 -1555 -146 -293 -275 -474 -491 -690
-216 -216 -397 -345 -690 -491 -427 -212 -1022 -366 -1555 -404 -49 -3 -108
-9 -129 -12 l-39 -5 6 116 c20 350 108 814 217 1145 317 959 881 1523 1841
1841 257 84 607 159 909 194 192 22 197 23 278 24 l74 2 -6 -37z"/>
</g>
</svg>
