<svg version="1.0" xmlns="http://www.w3.org/2000/svg"
 width="2501.000000pt" height="2501.000000pt" viewBox="0 0 2501.000000 2501.000000"
 preserveAspectRatio="xMidYMid meet">

<g transform="translate(0.000000,2501.000000) scale(0.100000,-0.100000)"
fill="#0e47cb" stroke="none">
<path d="M12400 22385 c-115 -33 -212 -114 -264 -225 l-31 -65 0 -1345 0
-1345 27 -58 c35 -75 119 -162 189 -198 257 -129 556 26 600 313 6 39 9 540 7
1333 l-3 1270 -21 57 c-45 117 -131 206 -241 249 -75 28 -189 34 -263 14z"/>
<path d="M8543 20785 c-291 -82 -407 -414 -229 -652 66 -88 1793 -1806 1846
-1836 210 -120 483 -37 585 178 36 77 49 168 35 246 -26 142 18 93 -964 1077
-495 496 -921 916 -946 932 -95 61 -227 83 -327 55z"/>
<path d="M16285 20786 c-122 -30 -97 -7 -1081 -990 -1015 -1016 -968 -964
-995 -1109 -32 -175 70 -366 238 -445 52 -24 69 -27 168 -27 104 0 114 2 180
33 67 31 113 76 997 960 884 884 929 930 960 997 31 66 33 76 33 180 0 99 -3
116 -27 168 -54 115 -172 209 -296 236 -65 14 -112 13 -177 -3z"/>
<path d="M12236 18639 c-378 -52 -730 -193 -1018 -409 -464 -349 -764 -857
-842 -1428 -21 -147 -21 -427 0 -574 124 -903 802 -1626 1693 -1808 168 -34
283 -43 485 -37 128 3 229 12 306 25 781 140 1416 688 1664 1436 186 562 126
1200 -162 1711 -319 567 -860 951 -1502 1067 -131 23 -503 34 -624 17z m474
-834 c274 -45 526 -179 725 -386 138 -145 230 -291 293 -469 54 -154 67 -236
67 -435 0 -199 -13 -281 -67 -435 -132 -374 -442 -678 -818 -804 -160 -54
-275 -69 -465 -63 -169 6 -252 21 -395 73 -440 158 -765 546 -845 1008 -31
183 -15 428 40 611 98 323 352 623 660 777 120 61 297 116 420 131 81 10 299
5 385 -8z"/>
<path d="M6930 16914 c-115 -31 -211 -113 -264 -224 -29 -60 -31 -73 -31 -175
0 -102 2 -115 31 -175 35 -73 99 -144 165 -183 102 -60 45 -58 1455 -55 l1289
3 67 32 c327 154 327 602 0 756 l-67 32 -1295 2 c-1117 2 -1303 0 -1350 -13z"/>
<path d="M15358 16911 c-241 -78 -358 -340 -254 -568 36 -77 81 -130 148 -173
116 -75 27 -71 1503 -68 l1320 3 58 23 c161 66 260 212 260 387 0 175 -99 321
-260 387 l-58 23 -1330 2 c-1268 2 -1333 1 -1387 -16z"/>
<path d="M14495 14807 c-66 -22 -106 -47 -163 -101 -100 -94 -147 -233 -123
-363 27 -145 -20 -93 995 -1109 1016 -1015 964 -968 1109 -995 175 -32 366 70
445 238 24 52 27 69 27 168 0 104 -2 114 -33 180 -31 67 -76 113 -960 997
-887 887 -930 929 -997 960 -61 28 -82 33 -165 35 -59 2 -110 -2 -135 -10z"/>
<path d="M10260 14775 c-30 -9 -75 -27 -100 -42 -53 -30 -1779 -1748 -1846
-1836 -105 -141 -111 -341 -14 -482 91 -132 252 -203 406 -177 143 24 96 -18
1077 961 494 493 912 915 929 939 97 139 96 334 -2 477 -41 60 -116 118 -187
146 -75 28 -189 34 -263 14z"/>
<path d="M12415 13917 c-121 -32 -231 -123 -283 -234 l-27 -58 0 -1345 0
-1345 31 -65 c74 -156 234 -250 404 -237 168 13 303 115 364 275 l21 57 0
1315 0 1315 -23 56 c-49 122 -129 205 -240 248 -68 27 -181 35 -247 18z"/>
<path d="M2816 10420 c-106 -27 -219 -118 -269 -217 -43 -84 -51 -153 -44
-391 19 -718 221 -1366 567 -1827 399 -531 1041 -860 1879 -965 86 -11 179
-21 206 -22 l50 -3 3 -2017 2 -2018 -1234 0 c-761 0 -1253 -4 -1285 -10 -215
-41 -365 -253 -330 -469 22 -138 101 -246 227 -308 l76 -38 9820 -3 c8975 -2
9825 -1 9876 14 75 22 129 55 183 113 203 217 126 561 -151 673 l-57 23 -1278
3 -1277 2 2 2018 3 2017 45 3 c176 10 494 60 675 107 823 211 1378 655 1689
1352 139 310 237 690 276 1068 17 169 24 493 11 560 -25 135 -106 242 -229
302 l-76 38 -261 0 c-189 -1 -298 -6 -400 -18 -972 -124 -1646 -517 -2045
-1190 l-59 -99 -24 49 c-42 82 -160 254 -239 348 -368 437 -864 709 -1543 844
-256 51 -402 65 -690 65 l-260 1 -67 -32 c-94 -44 -160 -109 -206 -202 l-37
-75 0 -251 c0 -319 27 -545 100 -850 150 -626 443 -1111 873 -1443 243 -187
555 -339 897 -437 205 -59 385 -93 693 -131 l42 -5 0 -2020 0 -2019 -2980 0
-2980 0 0 978 0 979 113 12 c277 31 587 101 822 186 260 93 548 251 740 406
455 366 758 931 879 1640 43 247 51 343 51 614 l0 260 -32 67 c-61 128 -170
213 -308 239 -78 15 -424 5 -605 -16 -971 -116 -1661 -511 -2059 -1180 l-63
-105 -65 109 c-93 156 -181 269 -313 405 -134 138 -223 212 -375 312 -401 264
-938 430 -1535 474 -179 13 -386 13 -452 -1 -81 -17 -157 -61 -216 -123 -104
-110 -128 -211 -118 -486 18 -474 101 -887 252 -1260 274 -675 747 -1118 1454
-1364 290 -101 523 -148 943 -192 l57 -5 0 -975 0 -974 -3060 0 -3060 0 0
2020 c0 1111 2 2020 5 2020 2 0 75 9 162 20 811 104 1435 416 1835 918 312
391 507 909 583 1547 22 182 31 534 16 607 -28 135 -113 242 -239 301 l-67 32
-260 0 c-189 -1 -298 -6 -400 -18 -972 -124 -1655 -523 -2048 -1195 l-53 -91
-57 97 c-31 54 -91 145 -133 202 -99 136 -328 364 -464 462 -378 272 -838 442
-1405 519 -171 23 -632 35 -699 19z m819 -881 c618 -126 1011 -405 1239 -879
97 -202 190 -532 212 -752 8 -79 19 -75 -128 -53 -499 75 -922 275 -1155 545
-220 254 -363 592 -433 1020 -29 178 -33 164 48 156 37 -4 135 -20 217 -37z
m4160 -16 c-12 -105 -56 -314 -90 -432 -97 -338 -263 -622 -468 -800 -247
-215 -592 -362 -1017 -431 -169 -27 -167 -27 -163 13 36 295 120 592 227 806
198 394 488 634 949 786 160 53 425 109 530 114 l38 1 -6 -57z m9569 37 c541
-92 936 -299 1177 -615 144 -188 246 -412 319 -700 39 -153 79 -390 67 -401
-20 -20 -376 53 -569 116 -507 167 -813 448 -1002 917 -73 183 -140 448 -162
641 l-7 62 31 0 c16 0 82 -9 146 -20z m4271 -32 c-68 -520 -238 -916 -509
-1183 -212 -210 -468 -344 -831 -435 -141 -36 -390 -79 -399 -69 -9 9 38 274
74 414 90 353 225 610 430 816 172 174 389 300 673 394 160 53 425 109 530
114 l39 1 -7 -52z m-11175 -2048 c856 -140 1321 -544 1516 -1318 25 -102 74
-367 74 -405 0 -6 -183 20 -294 43 -428 87 -800 280 -1007 523 -230 271 -374
639 -443 1135 -7 51 -16 49 154 22z m4290 -12 c0 -98 -65 -392 -126 -571 -146
-425 -387 -715 -750 -902 -210 -108 -488 -191 -766 -229 l-98 -13 0 22 c0 46
43 275 75 401 139 545 409 895 857 1109 187 89 429 161 674 199 136 21 134 21
134 -16z"/>
</g>
</svg>
