<svg version="1.0" xmlns="http://www.w3.org/2000/svg"
 width="2501.000000pt" height="2501.000000pt" viewBox="0 0 2501.000000 2501.000000"
 preserveAspectRatio="xMidYMid meet">

<g transform="translate(0.000000,2501.000000) scale(0.100000,-0.100000)"
fill="#0e47cb" stroke="none">
<path d="M12455 20187 c-142 -47 -253 -171 -284 -315 -6 -29 -11 -126 -11
-216 0 -119 -3 -166 -12 -173 -32 -25 -1756 -763 -1782 -763 -16 0 -1197 146
-2624 325 -2408 302 -2599 325 -2656 314 -249 -45 -400 -287 -328 -525 38
-124 110 -207 226 -260 50 -23 112 -33 499 -81 243 -31 444 -57 446 -59 2 -2
-444 -1357 -990 -3011 l-994 -3008 1 -180 c2 -143 7 -210 27 -325 119 -678
501 -1263 1072 -1645 221 -148 557 -290 826 -349 387 -86 836 -72 1214 37 542
157 1017 498 1347 967 267 379 429 884 432 1340 l1 145 -974 2948 c-535 1621
-971 2950 -969 2953 4 4 3158 -386 3166 -391 1 -1 9 -42 18 -91 159 -930 847
-1692 1749 -1938 66 -19 150 -39 187 -46 l68 -12 -6 -262 c-3 -143 -20 -1426
-39 -2851 -19 -1424 -37 -2753 -41 -2951 l-6 -362 -452 -5 c-470 -5 -530 -10
-751 -57 -239 -52 -551 -185 -765 -328 -268 -179 -512 -430 -681 -703 -120
-193 -234 -470 -280 -680 -13 -57 -26 -108 -30 -113 -4 -5 -49 -15 -101 -22
-232 -34 -465 -106 -683 -214 -242 -119 -437 -262 -631 -462 -183 -189 -293
-346 -410 -583 -148 -303 -219 -577 -231 -900 -7 -199 2 -245 68 -344 50 -76
131 -135 219 -161 64 -20 110 -20 5236 -18 l5170 3 75 37 c93 46 158 112 202
206 32 67 32 68 32 222 -2 638 -309 1279 -814 1701 -347 290 -715 449 -1212
524 -35 5 -37 8 -44 51 -20 136 -108 390 -195 564 -341 685 -966 1135 -1745
1257 -77 12 -218 16 -624 20 l-524 5 7 327 c3 179 22 1537 41 3016 19 1480 38
2780 41 2891 l6 200 87 18 c238 49 585 195 801 336 564 370 963 976 1067 1622
15 93 21 109 38 113 57 12 3145 388 3150 384 2 -3 -433 -1328 -968 -2945
l-972 -2939 1 -175 c0 -253 44 -497 134 -755 45 -131 187 -414 265 -530 412
-614 1051 -1006 1781 -1091 184 -22 497 -15 670 15 263 45 456 107 699 226
691 338 1191 996 1330 1750 30 163 49 386 42 480 -5 57 -191 630 -997 3070
-544 1649 -990 3005 -990 3012 0 7 6 13 13 13 6 0 206 24 443 54 488 60 500
64 600 158 251 237 122 650 -222 708 -53 9 -344 -25 -2719 -319 l-2660 -329
-772 326 -773 326 0 242 c0 213 -2 250 -20 306 -37 119 -109 201 -226 255 -49
22 -75 28 -154 30 -59 2 -110 -2 -135 -10z m-318 -2204 c-4 -324 -10 -749 -14
-945 -6 -332 -7 -358 -24 -358 -36 0 -228 74 -329 126 -391 203 -683 558 -804
977 -25 87 -57 249 -51 256 6 5 1209 529 1219 530 6 1 7 -235 3 -586z m1948
15 c2 -2 -4 -45 -15 -96 -48 -238 -152 -460 -305 -657 -132 -170 -357 -356
-544 -449 -76 -39 -261 -109 -268 -103 -5 5 17 1746 22 1763 2 7 220 -79 555
-221 303 -128 552 -234 555 -237z m-6939 -3038 l732 -2215 -1471 -3 c-809 -1
-1472 -1 -1474 1 -3 3 412 1265 1149 3492 176 534 323 963 327 955 3 -8 334
-1012 737 -2230z m12200 0 l731 -2215 -1470 -3 c-809 -1 -1472 0 -1474 1 -2 3
1440 4387 1463 4447 6 13 7 13 12 0 3 -8 335 -1012 738 -2230z m-11371 -3087
c-4 -21 -22 -76 -40 -123 -178 -463 -539 -813 -1002 -974 -214 -74 -493 -103
-724 -76 -621 72 -1154 505 -1355 1104 -19 55 -34 101 -34 103 0 2 712 3 1581
3 l1581 0 -7 -37z m12205 23 c0 -8 -16 -60 -36 -117 -188 -540 -657 -946
-1227 -1061 -96 -20 -141 -23 -322 -22 -177 0 -226 4 -312 22 -151 33 -274 76
-408 143 -163 81 -288 172 -425 309 -137 137 -228 262 -309 425 -47 94 -121
285 -121 311 0 2 711 4 1580 4 1349 0 1580 -2 1580 -14z m-6361 -3337 c272
-25 533 -126 753 -292 155 -117 333 -330 420 -501 28 -54 98 -228 98 -241 0
-3 -1163 -5 -2585 -5 -1910 0 -2585 3 -2585 11 0 6 16 53 36 103 166 415 501
729 924 864 91 29 244 58 340 65 128 10 2496 6 2599 -4z m2186 -1897 c513
-118 897 -445 1081 -924 19 -48 34 -90 34 -93 0 -3 -2077 -5 -4615 -5 -3182 0
-4615 3 -4615 10 0 16 65 180 93 237 58 114 173 270 272 368 248 247 536 384
900 428 17 2 1542 4 3390 3 l3360 -1 100 -23z"/>
</g>
</svg>
