<?xml version="1.0" standalone="no"?>
<!DOCTYPE svg PUBLIC "-//W3C//DTD SVG 20010904//EN"
 "http://www.w3.org/TR/2001/REC-SVG-20010904/DTD/svg10.dtd">
<svg version="1.0" xmlns="http://www.w3.org/2000/svg"
 width="2500.000000pt" height="2500.000000pt" viewBox="0 0 2500.000000 2500.000000"
 preserveAspectRatio="xMidYMid meet">

<g transform="translate(0.000000,2500.000000) scale(0.100000,-0.100000)"
fill="#0e47cb" stroke="none">
<path d="M12180 20444 c-25 -2 -115 -8 -200 -14 -836 -59 -1714 -302 -2485
-688 -1805 -902 -3124 -2590 -3555 -4548 -23 -104 -43 -190 -44 -192 -2 -1
-77 11 -167 27 -445 80 -946 141 -1464 177 -472 32 -1454 29 -1735 -7 -190
-24 -338 -160 -370 -339 -31 -179 -48 -901 -31 -1340 31 -807 108 -1474 252
-2176 181 -885 438 -1645 799 -2359 255 -506 521 -914 864 -1325 155 -187 560
-592 746 -747 629 -523 1332 -921 2192 -1242 1235 -460 2774 -703 4293 -678
384 7 630 20 725 38 124 25 246 121 296 235 31 70 40 138 55 429 12 237 7
1247 -6 1292 l-7 23 177 0 178 0 -7 -47 c-3 -27 -9 -253 -13 -503 -6 -441 5
-855 28 -1054 21 -190 153 -340 329 -375 180 -35 1196 -50 1630 -23 1474 91
2680 352 3780 817 235 100 666 315 880 441 1163 680 2016 1623 2619 2892 566
1194 891 2636 961 4272 18 435 9 1068 -20 1364 -14 136 -50 215 -136 295 -72
67 -138 97 -248 111 -177 22 -576 33 -1030 27 -682 -8 -1207 -49 -1826 -142
-164 -25 -490 -82 -521 -91 -13 -4 -19 8 -28 58 -47 245 -132 558 -225 833
-401 1185 -1117 2223 -2087 3027 -1044 865 -2315 1387 -3689 1513 -163 15
-797 28 -910 19z m870 -849 c322 -32 603 -80 899 -155 145 -36 321 -87 330
-96 2 -1 -35 -81 -82 -176 -48 -95 -106 -230 -131 -299 -417 -1167 -26 -2450
972 -3187 118 -87 247 -166 401 -244 l134 -68 39 -117 c49 -148 176 -407 262
-537 231 -345 547 -623 912 -803 l132 -65 7 -46 c20 -144 87 -344 166 -498
133 -259 369 -515 611 -663 143 -87 310 -159 453 -196 39 -10 74 -21 78 -26
12 -10 -6 -92 -68 -309 -381 -1330 -1233 -2501 -2376 -3268 -219 -146 -661
-402 -695 -402 -7 0 -37 46 -66 103 -194 370 -469 643 -865 858 -26 14 -32 28
-66 158 -50 192 -93 305 -192 506 -87 177 -196 351 -311 495 -88 109 -295 316
-404 404 -395 316 -888 521 -1390 577 -243 27 -602 9 -837 -42 -87 -19 -277
-69 -313 -83 -10 -4 -45 20 -100 69 -400 358 -904 594 -1440 676 -191 29 -500
36 -692 15 -491 -52 -959 -229 -1342 -508 -39 -28 -72 -46 -77 -41 -14 14
-113 305 -163 480 -164 572 -236 1137 -223 1748 8 354 35 626 93 946 l17 89
141 0 c468 0 936 119 1338 341 189 104 416 267 543 390 l51 49 74 -76 c223
-226 481 -365 793 -425 222 -44 485 -27 716 47 220 69 416 190 586 359 211
211 342 454 407 759 31 145 31 417 0 562 -126 590 -547 1019 -1131 1156 -117
27 -409 36 -533 16 l-87 -14 -11 70 c-26 166 -95 408 -175 617 -8 21 141 110
415 248 732 370 1476 569 2335 625 137 9 717 -4 865 -19z m2450 -795 c1542
-924 2575 -2463 2829 -4215 46 -314 55 -454 55 -855 1 -376 -5 -480 -25 -480
-6 0 -41 12 -77 27 -156 62 -299 174 -391 307 -111 161 -148 282 -160 518 -7
154 -8 158 -44 232 -26 51 -54 89 -89 121 -65 59 -80 66 -227 114 -341 112
-609 314 -803 606 -109 164 -174 324 -222 542 -29 131 -51 178 -114 245 -57
61 -99 86 -227 133 -428 159 -800 477 -1025 875 -346 615 -330 1379 43 1977
l51 82 161 -83 c88 -45 207 -111 265 -146z m-6725 -733 c39 -194 49 -353 35
-543 -14 -183 -8 -228 39 -322 39 -77 132 -163 208 -193 47 -19 77 -23 158
-23 125 0 180 20 285 104 147 117 260 160 430 160 181 0 315 -56 446 -185 134
-133 188 -263 188 -450 0 -187 -54 -316 -189 -450 -131 -131 -264 -188 -445
-188 -157 0 -286 45 -408 144 -110 89 -185 215 -222 372 -11 48 -32 111 -46
139 -36 72 -112 143 -192 181 -63 30 -74 32 -177 32 -98 0 -116 -3 -167 -27
-79 -37 -147 -104 -222 -218 -277 -422 -714 -724 -1207 -834 -117 -26 -317
-51 -326 -42 -16 15 148 399 283 666 335 662 809 1276 1354 1753 l125 109 12
-30 c7 -17 24 -87 38 -155z m-4810 -3677 c562 -27 1145 -92 1645 -183 l175
-32 -3 -325 c-4 -347 6 -561 39 -865 129 -1188 581 -2328 1304 -3290 1027
-1366 2532 -2291 4208 -2585 93 -16 171 -31 173 -32 10 -11 24 -481 24 -827
l0 -418 -77 -7 c-42 -3 -200 -6 -352 -6 -1752 1 -3390 346 -4626 976 -1155
588 -1967 1402 -2549 2554 -129 255 -201 415 -291 645 -347 885 -568 1922
-650 3050 -31 424 -43 981 -28 1243 l6 112 396 0 c218 0 491 -5 606 -10z
m18109 -42 c9 -82 7 -657 -4 -908 -115 -2586 -904 -4611 -2265 -5807 -1148
-1010 -2846 -1623 -4925 -1778 -522 -38 -1349 -48 -1371 -15 -11 16 -3 989 9
1155 l7 90 75 13 c1376 234 2602 856 3593 1821 761 742 1334 1651 1673 2654
254 752 366 1483 351 2295 -3 166 -3 302 -1 302 2 0 102 18 222 39 498 90
1067 155 1592 180 91 4 361 9 601 10 l436 1 7 -52z m-13129 -3003 c303 -40
581 -144 830 -310 144 -96 234 -173 380 -329 103 -110 130 -132 194 -164 72
-35 79 -37 175 -37 99 1 103 1 216 52 220 97 408 145 638 162 886 68 1700
-521 1922 -1389 11 -44 29 -136 39 -206 24 -159 56 -229 141 -307 49 -46 78
-62 178 -101 268 -105 487 -292 616 -528 l37 -66 -48 -16 c-211 -68 -542 -146
-808 -190 -528 -86 -1082 -100 -1620 -40 -1813 201 -3443 1252 -4389 2827 -88
147 -90 128 19 217 412 337 957 493 1480 425z"/>
<path d="M11468 15281 c-214 -69 -353 -277 -335 -504 24 -314 341 -520 643
-417 194 67 324 251 324 460 -1 210 -139 399 -339 460 -82 26 -214 26 -293 1z"/>
<path d="M13238 15281 c-200 -64 -338 -252 -338 -461 0 -254 188 -460 444
-486 164 -16 341 67 438 205 186 267 58 646 -251 741 -82 26 -214 26 -293 1z"/>
<path d="M10815 13766 c-59 -27 -117 -88 -136 -142 -20 -56 -15 -233 11 -365
79 -415 331 -784 705 -1034 800 -535 1919 -407 2546 292 239 265 386 627 392
960 2 126 -9 167 -62 226 -127 142 -364 103 -436 -71 -9 -20 -20 -90 -25 -157
-19 -252 -121 -473 -302 -656 -256 -260 -608 -399 -1008 -399 -400 0 -752 139
-1008 399 -181 183 -283 404 -302 656 -5 67 -16 137 -25 157 -55 134 -218 196
-350 134z"/>
</g>
</svg>
