<svg version="1.0" xmlns="http://www.w3.org/2000/svg"
 width="2501.000000pt" height="2500.000000pt" viewBox="0 0 2501.000000 2500.000000"
 preserveAspectRatio="xMidYMid meet">

<g transform="translate(0.000000,2500.000000) scale(0.100000,-0.100000)"
fill="#0e47cb" stroke="none">
<path d="M12321 20509 c-220 -23 -446 -90 -666 -198 -437 -215 -849 -599
-1208 -1131 l-78 -115 -162 -1 c-123 -1 -186 -7 -264 -23 -377 -79 -687 -289
-891 -604 -50 -78 -60 -88 -82 -84 -14 2 -133 32 -265 66 -726 187 -1480 286
-2025 267 -528 -19 -934 -105 -1285 -275 -243 -117 -376 -210 -545 -380 -308
-310 -469 -698 -496 -1191 -11 -202 25 -529 84 -772 l19 -77 -70 -58 c-235
-195 -407 -493 -464 -803 -25 -140 -23 -374 6 -507 61 -288 193 -529 400 -725
246 -234 541 -360 877 -375 163 -7 289 6 427 44 50 14 97 26 103 27 6 0 78
-82 159 -184 186 -232 315 -384 525 -618 91 -101 187 -208 214 -238 l48 -54
-48 -54 c-27 -30 -133 -148 -236 -263 -1094 -1221 -1796 -2413 -1985 -3372
l-28 -139 -51 -31 c-74 -44 -200 -148 -265 -218 -168 -182 -289 -412 -344
-659 -26 -113 -31 -371 -10 -495 71 -429 337 -800 714 -998 331 -173 720 -203
1077 -85 97 32 292 131 358 182 l49 38 117 -23 c597 -116 1308 -89 2170 83
470 93 1059 256 1531 422 l117 41 52 -117 c481 -1067 1079 -1791 1755 -2122
551 -271 1125 -276 1672 -15 286 137 469 270 734 534 207 207 347 377 508 616
205 304 352 568 517 930 41 88 78 161 83 163 6 2 133 -37 283 -87 695 -229
1343 -384 1927 -461 85 -11 155 -21 155 -23 1 -1 23 -47 50 -102 163 -336 442
-581 799 -700 149 -50 267 -68 437 -68 231 1 392 39 605 144 146 71 263 158
377 278 249 261 378 585 378 948 l0 134 66 75 c85 98 174 234 234 359 405 842
123 2029 -815 3430 -330 493 -764 1036 -1233 1542 l-104 112 159 173 c87 96
207 231 267 300 l109 127 36 -16 c20 -8 81 -30 136 -48 324 -107 692 -83 1002
65 388 184 666 538 758 960 26 120 31 354 10 485 -44 282 -168 532 -366 740
-49 51 -89 97 -89 102 0 5 18 54 40 109 172 422 270 878 270 1254 -1 525 -167
948 -505 1285 -140 141 -249 223 -425 321 -893 498 -2399 432 -4278 -187 -150
-50 -277 -89 -282 -87 -6 2 -46 81 -89 176 -231 502 -500 942 -789 1287 -145
172 -388 409 -537 520 -452 341 -950 494 -1434 444z m433 -853 c458 -117 922
-559 1326 -1265 87 -151 284 -548 295 -592 6 -25 1 -28 -247 -134 -139 -59
-341 -148 -448 -197 -206 -95 -854 -414 -1052 -519 l-118 -62 -482 243 c-266
133 -484 243 -486 245 -1 1 5 49 14 106 20 126 14 383 -11 499 -54 247 -170
469 -337 645 l-80 85 78 107 c365 501 755 794 1144 858 117 20 280 12 404 -19z
m-2464 -1426 c150 -24 316 -142 387 -275 53 -100 66 -164 61 -284 -6 -127 -27
-187 -98 -290 -57 -80 -155 -156 -249 -192 -70 -27 -222 -37 -304 -19 -210 43
-388 236 -418 453 -43 318 201 604 526 616 17 0 59 -4 95 -9z m-3205 -380
c318 -19 681 -70 1034 -146 135 -29 574 -137 695 -172 28 -8 31 -13 43 -87 19
-111 75 -272 134 -386 67 -128 156 -244 269 -353 l93 -89 -11 -41 c-148 -588
-266 -1197 -337 -1746 -14 -107 -28 -210 -31 -227 -4 -29 -35 -57 -232 -215
-422 -340 -873 -730 -1210 -1049 -254 -239 -259 -244 -279 -228 -68 56 -536
598 -736 851 l-117 149 31 45 c85 124 165 338 195 524 19 115 13 377 -11 485
-59 263 -174 481 -356 670 -247 256 -555 398 -918 421 l-99 7 -6 31 c-51 277
-64 433 -47 589 47 433 294 710 768 860 307 97 685 133 1128 107z m11365 0
c576 -41 984 -205 1192 -479 193 -255 237 -611 133 -1076 -29 -129 -113 -393
-164 -515 l-31 -75 -137 -1 c-81 -1 -177 -8 -233 -18 -555 -99 -999 -539
-1104 -1093 -54 -287 -12 -603 114 -853 17 -33 30 -64 30 -71 0 -18 -477 -558
-502 -567 -5 -2 -70 54 -145 125 -442 417 -984 887 -1425 1236 l-136 108 -7
52 c-116 940 -304 1829 -536 2543 -21 66 -39 123 -39 127 0 3 105 40 233 82
1085 358 2053 524 2757 475z m-3710 -1035 c120 -396 225 -823 308 -1255 50
-254 54 -280 49 -280 -3 0 -76 50 -163 111 -370 260 -1085 723 -1456 944 -54
31 -98 59 -98 62 0 5 426 215 605 298 277 127 690 303 697 297 3 -4 30 -83 58
-177z m-3466 -236 c94 -45 215 -104 269 -131 l99 -49 -195 -118 c-497 -302
-1047 -661 -1430 -934 -54 -38 -99 -68 -101 -66 -10 12 132 701 197 954 l23
90 135 6 c206 10 361 50 542 140 100 49 230 134 262 169 10 11 20 20 23 20 3
0 82 -37 176 -81z m1386 -729 c627 -359 1386 -845 1994 -1280 279 -199 587
-427 597 -442 6 -9 32 -331 49 -603 39 -629 39 -1418 0 -2050 -17 -270 -43
-594 -49 -603 -10 -15 -318 -243 -597 -442 -494 -353 -1146 -779 -1664 -1087
-206 -123 -463 -271 -477 -275 -12 -4 -244 128 -573 325 -689 414 -1321 838
-1966 1317 -246 183 -214 125 -239 445 -69 914 -69 1776 0 2690 24 320 -7 262
239 445 665 495 1343 947 2051 1368 293 174 479 280 485 277 3 -1 70 -40 150
-85z m-7222 -448 c219 -69 372 -280 372 -512 0 -150 -49 -268 -155 -376 -243
-248 -638 -212 -828 74 -67 101 -90 176 -91 297 0 118 23 199 83 292 75 115
219 216 346 242 70 14 198 6 273 -17z m14184 -553 c313 -105 456 -455 310
-757 -36 -76 -158 -198 -234 -234 -255 -124 -547 -46 -697 186 -104 159 -117
353 -35 523 75 158 239 280 409 307 59 9 184 -4 247 -25z m-10755 -1599 c-11
-218 -11 -1279 1 -1495 5 -93 8 -171 6 -173 -3 -4 -264 221 -479 414 -260 232
-530 489 -530 504 0 15 270 272 530 504 211 189 476 418 479 414 1 -2 -2 -77
-7 -168z m7587 -99 c263 -231 701 -637 701 -651 0 -24 -1000 -928 -1013 -915
-2 1 2 157 9 346 11 333 7 1083 -8 1369 l-6 124 93 -79 c51 -44 152 -132 224
-194z m-9038 -1383 c424 -401 860 -781 1326 -1156 197 -158 228 -186 232 -215
3 -17 17 -120 31 -227 105 -799 281 -1613 495 -2292 28 -86 50 -161 50 -166 0
-6 -110 -47 -244 -91 -1056 -348 -2001 -513 -2697 -473 -112 7 -204 14 -206
15 -1 2 5 39 14 83 25 121 22 370 -6 501 -56 268 -171 488 -354 679 -190 199
-427 336 -672 389 -129 28 -122 9 -66 176 229 681 711 1471 1412 2309 218 261
522 600 538 600 4 0 70 -59 147 -132z m10469 -13 c1021 -1118 1704 -2220 1890
-3052 73 -324 71 -638 -4 -836 l-11 -28 -73 59 c-192 158 -417 260 -660 298
-160 26 -398 15 -547 -24 -266 -70 -464 -185 -655 -383 -142 -147 -256 -337
-316 -526 l-22 -71 -36 5 c-415 60 -841 154 -1306 288 -268 77 -685 214 -685
224 0 4 9 34 20 67 37 107 109 348 164 550 167 616 300 1312 391 2051 l7 52
136 108 c453 358 1038 867 1467 1276 50 48 95 85 101 84 7 -1 69 -65 139 -142z
m-7866 -2103 c381 -272 932 -631 1429 -933 l196 -119 -230 -111 c-344 -167
-887 -412 -1061 -480 -21 -8 -24 -2 -62 119 -130 416 -255 923 -336 1362 -20
107 -37 203 -39 213 -2 9 -2 17 1 17 3 0 49 -31 102 -68z m5075 31 c-60 -343
-165 -822 -249 -1129 -65 -239 -154 -536 -163 -546 -7 -6 -420 170 -697 297
-179 83 -605 293 -605 298 0 3 44 31 98 62 385 229 1206 763 1497 974 61 43
114 80 118 80 4 1 5 -16 1 -36z m-2413 -1660 c396 -210 994 -494 1447 -688
166 -71 252 -113 252 -123 0 -24 -209 -445 -299 -602 -338 -590 -720 -1000
-1106 -1185 -479 -230 -967 -104 -1445 375 -231 231 -443 526 -658 920 -77
139 -242 480 -242 498 0 4 107 54 239 110 417 178 634 280 1136 533 270 136
495 247 501 248 7 0 85 -38 175 -86z m-7476 -18 c272 -71 448 -353 391 -625
-50 -238 -237 -407 -481 -434 -248 -29 -505 152 -570 399 -19 74 -19 203 0
274 49 185 198 335 382 386 66 18 207 18 278 0z m13793 -653 c150 -58 270
-180 324 -327 26 -73 35 -217 18 -298 -38 -185 -191 -346 -385 -403 -86 -25
-221 -23 -305 6 -233 79 -375 277 -374 520 2 236 142 426 374 508 57 20 80 22
180 19 86 -3 129 -9 168 -25z"/>
<path d="M12225 14735 c-577 -78 -1082 -356 -1453 -800 -462 -551 -627 -1309
-441 -2015 192 -727 748 -1318 1462 -1555 265 -88 495 -121 785 -112 335 10
598 73 889 212 301 144 534 320 740 560 284 330 463 719 530 1155 24 159 24
481 0 640 -92 600 -396 1112 -876 1479 -121 92 -230 157 -394 236 -195 93
-382 152 -607 191 -130 22 -501 28 -635 9z m565 -840 c273 -61 501 -181 697
-368 217 -207 359 -470 419 -772 25 -124 25 -386 0 -510 -28 -140 -73 -270
-137 -395 -200 -388 -551 -652 -990 -747 -132 -28 -430 -26 -568 5 -574 129
-1004 577 -1107 1153 -22 125 -22 353 0 478 91 510 445 929 932 1104 63 22
214 58 299 71 69 10 382 -3 455 -19z"/>
</g>
</svg>
