<svg version="1.0" xmlns="http://www.w3.org/2000/svg"
 width="2501.000000pt" height="2501.000000pt" viewBox="0 0 2501.000000 2501.000000"
 preserveAspectRatio="xMidYMid meet">

<g transform="translate(0.000000,2501.000000) scale(0.100000,-0.100000)"
fill="#0e47cb" stroke="none">
<path d="M9575 19434 c-547 -44 -1026 -177 -1495 -415 -368 -186 -666 -404
-965 -704 -365 -365 -652 -797 -835 -1255 -29 -74 -64 -148 -77 -164 -13 -15
-30 -41 -39 -57 -8 -16 -482 -1192 -1054 -2614 -735 -1825 -1048 -2614 -1066
-2687 -35 -140 -45 -397 -20 -544 32 -184 112 -385 216 -539 26 -38 835 -994
1797 -2122 l1750 -2053 7 -117 c3 -65 15 -381 26 -703 11 -322 24 -620 29
-662 19 -150 97 -260 229 -325 l76 -38 1830 0 1831 0 68 32 c127 60 214 176
236 314 7 42 11 629 11 1747 l0 1684 31 -27 c91 -76 184 -99 380 -93 138 3
147 5 216 37 39 18 82 44 94 57 12 13 26 24 31 24 4 0 8 -773 8 -1718 0 -1915
-6 -1766 71 -1881 50 -75 130 -134 217 -161 63 -20 98 -20 1853 -20 1774 0
1790 0 1850 20 33 12 77 31 97 44 82 52 160 164 181 258 5 24 22 376 37 783
l27 740 25 30 c13 17 799 938 1746 2048 946 1111 1744 2053 1773 2094 104 151
173 314 215 506 17 80 22 136 22 262 0 172 -15 273 -58 407 -13 40 -488 1227
-1056 2638 -732 1821 -1042 2581 -1069 2620 -20 30 -59 109 -86 175 -198 491
-500 937 -891 1315 -955 923 -2329 1282 -3619 945 -350 -91 -694 -237 -1008
-425 -59 -35 -243 -159 -409 -276 l-302 -211 -300 211 c-335 235 -457 312
-663 415 -418 209 -821 330 -1288 387 -124 15 -570 27 -680 18z m495 -835
c485 -44 930 -191 1327 -440 51 -31 257 -173 457 -314 201 -140 387 -266 413
-278 44 -20 63 -22 238 -22 184 0 192 1 245 26 31 14 202 129 380 254 179 126
379 264 445 307 601 394 1352 554 2080 442 1065 -164 1963 -898 2344 -1917
319 -852 223 -1829 -256 -2606 -90 -145 -243 -347 -349 -460 -91 -97 -1136
-1082 -1142 -1077 -1 2 -43 298 -92 657 -49 360 -94 674 -100 698 -35 143
-149 258 -295 295 -89 24 -1421 24 -1510 0 -117 -30 -216 -112 -266 -219 -23
-50 -99 -427 -441 -2208 l-413 -2149 -314 -294 -314 -294 -61 57 c-296 274
-457 430 -461 447 -3 12 -117 991 -255 2176 -138 1185 -256 2173 -262 2195
-25 98 -101 197 -191 250 -94 54 -102 55 -857 55 -757 0 -763 0 -859 -57 -62
-36 -125 -102 -156 -163 -18 -35 -89 -309 -221 -848 -106 -438 -195 -800 -197
-805 -3 -11 -1317 1222 -1393 1309 -400 455 -643 973 -736 1569 -19 120 -22
182 -22 430 0 248 3 310 21 425 86 546 270 977 602 1415 95 126 386 419 511
515 472 363 1006 575 1585 629 132 12 383 12 515 0z m-3790 -4424 c106 -260
252 -527 415 -760 71 -101 84 -125 80 -150 -3 -16 -30 -230 -60 -475 -31 -245
-67 -528 -81 -630 -34 -242 -30 -458 10 -617 64 -255 198 -489 377 -658 35
-33 398 -353 806 -710 550 -481 759 -658 805 -682 114 -59 248 -62 366 -8 69
32 156 115 188 182 18 37 166 626 468 1866 l441 1812 302 3 301 2 6 -42 c3
-24 139 -1181 301 -2572 l295 -2530 0 -1473 0 -1473 -1320 0 c-726 0 -1320 1
-1320 3 0 1 -11 283 -24 627 -22 575 -26 629 -45 680 -12 30 -31 71 -43 91
-13 20 -826 978 -1808 2128 -982 1151 -1799 2114 -1817 2140 -55 82 -75 145
-81 258 -3 63 0 120 7 150 9 35 1180 2962 1278 3193 l15 35 43 -130 c23 -71
66 -188 95 -260z m13240 -1220 c457 -1136 637 -1592 648 -1649 13 -65 14 -92
4 -160 -24 -168 89 -28 -1878 -2334 -979 -1148 -1797 -2109 -1817 -2135 -72
-95 -74 -110 -99 -797 l-23 -615 -1317 -3 -1318 -2 0 1490 0 1490 490 2545
c270 1399 490 2549 490 2555 0 7 102 10 300 10 197 0 300 -4 300 -10 0 -6 110
-812 244 -1793 185 -1351 250 -1796 266 -1840 90 -240 400 -337 613 -192 55
36 1545 1345 1614 1416 206 215 332 494 364 812 14 140 16 120 -90 947 l-77
605 29 40 c65 89 217 326 272 424 112 202 242 501 300 696 33 107 36 114 46
89 4 -10 291 -725 639 -1589z m-11345 -1035 c308 -288 566 -528 573 -535 10
-9 -4 -82 -77 -379 -49 -202 -91 -370 -94 -372 -8 -8 -976 840 -1021 894 -87
106 -120 211 -113 356 4 85 53 502 73 615 l5 34 47 -45 c26 -25 299 -280 607
-568z m9360 303 c45 -349 48 -418 17 -519 -42 -137 -63 -160 -576 -609 -259
-227 -472 -412 -474 -410 -1 1 -27 184 -58 405 l-55 404 44 44 c72 72 1052
991 1057 991 3 1 23 -137 45 -306z"/>
</g>
</svg>
