<svg version="1.0" xmlns="http://www.w3.org/2000/svg"
 width="2500.000000pt" height="2501.000000pt" viewBox="0 0 2500.000000 2501.000000"
 preserveAspectRatio="xMidYMid meet">

<g transform="translate(0.000000,2501.000000) scale(0.100000,-0.100000)"
fill="#0e47cb" stroke="none">
<path d="M12060 20574 c-25 -2 -110 -8 -190 -14 -1499 -110 -2992 -671 -4205
-1582 -1547 -1163 -2622 -2817 -3044 -4684 -388 -1720 -205 -3521 519 -5121
951 -2097 2776 -3708 4969 -4384 580 -178 1145 -286 1791 -339 212 -18 765
-24 1005 -11 1374 74 2629 460 3800 1169 1025 620 1951 1528 2605 2551 1028
1608 1451 3535 1195 5436 -270 1996 -1281 3822 -2835 5118 -1102 919 -2425
1527 -3835 1761 -479 79 -704 97 -1265 101 -256 1 -485 1 -510 -1z m30 -2068
c0 -1089 -2 -1204 -16 -1210 -9 -3 -55 -6 -102 -6 -172 0 -652 -35 -977 -71
-492 -54 -966 -134 -1449 -244 -87 -19 -161 -34 -163 -31 -7 7 103 247 212
461 417 821 937 1467 1506 1871 197 139 424 261 634 339 105 39 295 93 333 94
l22 1 0 -1204z m966 1175 c303 -80 615 -236 911 -455 537 -398 1038 -1033
1438 -1821 111 -220 219 -454 212 -462 -3 -2 -74 11 -159 31 -721 168 -1612
288 -2308 311 -96 3 -190 8 -207 11 l-33 5 0 1204 c0 1141 1 1205 18 1205 9 0
67 -13 128 -29z m-3288 -513 c-235 -271 -479 -615 -683 -963 -236 -401 -526
-1028 -675 -1455 -18 -52 -38 -100 -44 -106 -6 -7 -69 -33 -141 -59 -913 -332
-1757 -806 -2360 -1324 -53 -45 -98 -81 -100 -79 -12 12 223 522 340 738 677
1251 1665 2252 2900 2938 221 122 810 399 823 387 2 -2 -25 -37 -60 -77z
m5697 -46 c133 -59 443 -215 575 -290 1411 -799 2491 -2001 3126 -3477 40 -93
71 -171 69 -173 -2 -2 -43 31 -92 73 -601 519 -1452 997 -2368 1330 -71 26
-135 52 -141 59 -6 6 -23 47 -38 91 -16 44 -61 163 -101 265 -326 832 -764
1587 -1243 2144 -45 53 -82 98 -82 100 0 5 141 -53 295 -122z m-3375 -2917 l0
-253 -138 -4 c-132 -3 -140 -4 -204 -36 -101 -50 -171 -140 -198 -254 -6 -27
-10 -538 -10 -1390 l0 -1348 -1501 0 -1501 0 7 123 c40 766 110 1343 240 1974
82 401 223 937 251 959 8 7 97 35 197 63 805 224 1651 362 2522 411 230 13
318 16 328 12 4 -2 7 -117 7 -257z m1160 245 c726 -40 1503 -154 2175 -321
239 -59 522 -139 539 -153 29 -22 171 -569 255 -980 129 -631 196 -1191 236
-1953 l7 -123 -1501 0 -1501 0 0 1339 c0 813 -4 1358 -10 1389 -22 118 -93
212 -198 264 -64 32 -72 33 -204 36 l-138 4 0 252 c0 139 2 255 4 257 5 5 81
2 336 -11z m-5180 -824 c0 -2 -16 -68 -35 -147 -168 -703 -275 -1509 -321
-2431 l-6 -128 -1208 0 -1208 0 14 63 c87 373 277 748 560 1102 110 138 412
441 564 567 423 350 873 627 1480 909 140 65 160 73 160 65z m8986 -50 c570
-256 1092 -574 1514 -924 152 -126 454 -429 564 -567 263 -329 455 -694 541
-1029 l33 -131 -1205 -3 c-664 -1 -1207 -1 -1209 1 -1 1 -7 101 -14 222 -42
828 -149 1631 -310 2315 -17 69 -32 135 -35 148 -3 12 -4 22 -2 22 2 0 57 -24
123 -54z m-4336 -1896 l0 -1540 -220 0 -220 0 0 1540 0 1540 220 0 220 0 0
-1540z m-5006 -1707 c19 -350 28 -494 42 -648 45 -518 114 -1002 215 -1492 37
-184 82 -384 95 -425 3 -10 0 -18 -6 -18 -24 0 -389 172 -565 266 -1040 556
-1754 1243 -2064 1987 -47 113 -102 283 -124 380 l-15 67 1208 0 1208 0 6
-117z m3828 -80 c4 -178 6 -204 27 -258 32 -82 123 -173 206 -206 l60 -24 665
0 665 0 60 24 c83 33 174 124 206 206 21 54 23 80 27 258 l4 197 1499 0 c1421
0 1499 -1 1499 -17 0 -71 -24 -451 -41 -653 -63 -765 -216 -1609 -412 -2270
l-34 -115 -109 -33 c-332 -102 -991 -247 -1404 -311 -462 -71 -945 -119 -1387
-137 l-163 -7 0 255 0 256 133 4 c123 3 137 6 199 35 112 53 184 145 208 268
8 43 10 266 8 780 l-3 720 -27 58 c-37 78 -78 129 -136 165 -98 62 -92 62
-792 62 -700 0 -694 0 -792 -62 -58 -36 -99 -87 -136 -165 l-27 -58 -3 -720
c-2 -514 0 -737 8 -780 24 -123 96 -215 208 -268 62 -29 76 -32 200 -35 l132
-4 0 -256 0 -255 -162 7 c-786 33 -1626 151 -2352 331 -249 61 -537 142 -547
153 -11 11 -105 353 -159 577 -96 395 -174 818 -229 1242 -46 348 -68 609 -96
1121 l-7 112 1500 0 1500 0 4 -197z m8151 130 c-22 -97 -77 -267 -124 -380
-249 -598 -772 -1173 -1509 -1658 -194 -128 -332 -209 -558 -330 -158 -85
-563 -277 -570 -271 -1 2 11 59 27 127 137 573 247 1295 295 1939 14 183 36
559 36 618 l0 22 1209 0 1209 0 -15 -67z m-6973 -1913 l0 -310 -220 0 -220 0
0 310 0 310 220 0 220 0 0 -310z m-6672 -509 c514 -407 1205 -791 1960 -1090
108 -43 234 -90 279 -106 l81 -28 42 -116 c334 -922 792 -1745 1316 -2367 76
-91 100 -124 83 -119 -113 36 -546 239 -773 364 -1309 719 -2352 1798 -3015
3121 -105 210 -261 554 -261 576 0 3 42 -30 93 -73 50 -44 139 -117 195 -162z
m13126 73 c-37 -88 -125 -274 -195 -414 -765 -1527 -2042 -2733 -3614 -3413
-83 -35 -161 -68 -174 -72 -17 -5 7 28 83 119 523 622 984 1451 1316 2367 l42
116 81 28 c285 99 716 284 1047 451 527 266 955 543 1346 872 71 60 130 108
132 107 1 -1 -27 -74 -64 -161z m-9528 -1658 c716 -158 1433 -252 2183 -287
l261 -13 0 -1208 0 -1209 -37 7 c-75 13 -270 73 -373 114 -793 316 -1527 1087
-2084 2190 -114 225 -216 443 -216 461 0 6 4 8 8 5 4 -3 120 -30 258 -60z
m5923 -67 c-28 -63 -102 -215 -165 -339 -557 -1103 -1291 -1874 -2084 -2190
-103 -41 -298 -101 -372 -114 l-38 -7 0 1209 0 1208 253 12 c767 37 1515 136
2217 293 124 28 227 53 230 56 19 18 3 -31 -41 -128z"/>
</g>
</svg>
