<svg version="1.0" xmlns="http://www.w3.org/2000/svg"
 width="2501.000000pt" height="2501.000000pt" viewBox="0 0 2501.000000 2501.000000"
 preserveAspectRatio="xMidYMid meet">

<g transform="translate(0.000000,2501.000000) scale(0.100000,-0.100000)"
fill="#0e47cb" stroke="none">
<path d="M10530 22384 c-107 -29 -206 -108 -255 -203 -66 -132 -140 -522 -165
-881 -32 -465 20 -926 150 -1321 52 -160 122 -328 176 -426 l35 -63 -128 0
c-574 0 -1170 -180 -1756 -529 -224 -134 -478 -320 -566 -416 -151 -164 -144
-421 17 -577 172 -167 568 -426 886 -579 808 -389 1552 -448 2353 -188 134 44
329 121 423 169 33 16 61 30 63 30 2 0 7 -78 10 -174 8 -197 28 -370 62 -531
12 -60 22 -111 20 -113 -1 -2 -43 16 -91 38 -822 383 -1666 393 -2430 30 -290
-137 -577 -336 -805 -557 -53 -51 -103 -93 -111 -93 -8 0 -1108 281 -2444 626
-2416 622 -2429 625 -2514 622 -70 -3 -97 -10 -153 -35 -87 -41 -159 -113
-200 -201 l-32 -67 0 -4895 0 -4895 27 -58 c37 -78 122 -166 195 -200 38 -18
1649 -437 4568 -1189 4238 -1091 4515 -1161 4595 -1162 80 0 328 62 4640 1162
3337 852 4571 1170 4616 1192 77 38 146 110 187 198 l32 67 3 4855 c1 3279 -1
4871 -8 4903 -17 82 -59 154 -126 217 -90 83 -149 105 -284 103 -104 -1 -119
-5 -2525 -620 l-2420 -619 -95 89 c-814 767 -1856 1011 -2875 672 -157 -52
-302 -113 -484 -204 -114 -57 -174 -81 -319 -127 -27 -8 -118 247 -157 441
-160 794 136 1591 883 2378 126 132 149 165 176 256 29 99 13 228 -39 317 -37
63 -112 131 -184 167 -62 30 -72 32 -176 32 -105 0 -114 -2 -179 -34 -53 -26
-90 -56 -160 -127 -50 -52 -94 -94 -98 -94 -5 0 -8 11 -8 24 0 54 -55 321 -95
462 -136 476 -372 876 -740 1253 -318 327 -705 606 -1119 807 -177 86 -255
100 -376 68z m546 -1143 c485 -364 781 -780 909 -1276 27 -106 54 -270 66
-406 11 -130 9 -533 -4 -545 -16 -16 -294 206 -440 349 -415 410 -616 841
-667 1432 -15 186 -9 535 10 535 5 0 61 -40 126 -89z m-406 -2611 c281 -49
573 -156 868 -316 l85 -47 -39 -24 c-21 -13 -106 -57 -189 -97 -590 -290
-1121 -347 -1674 -180 -207 63 -458 171 -624 268 -40 24 -46 31 -35 42 24 25
302 160 433 212 206 81 425 137 625 162 124 15 408 4 550 -20z m-4787 -2839
c1088 -280 1980 -511 1983 -514 3 -3 -20 -52 -52 -108 -387 -691 -581 -1561
-524 -2354 13 -173 51 -463 91 -695 248 -1433 872 -2765 1760 -3755 140 -156
406 -419 544 -536 709 -605 1437 -907 1986 -824 76 11 314 77 402 110 16 7 17
-36 17 -814 l0 -821 -22 5 c-13 4 -1854 477 -4093 1053 l-4070 1048 -3 4357
c-1 2396 -1 4357 1 4357 1 0 893 -229 1980 -509z m15225 -3847 l-3 -4357
-4074 -1038 c-2241 -571 -4083 -1041 -4093 -1045 -17 -5 -18 27 -18 804 l0
809 153 -47 c217 -67 267 -75 457 -74 186 0 296 16 480 69 727 209 1554 855
2211 1730 780 1037 1294 2350 1468 3745 44 351 48 637 15 980 -58 587 -248
1191 -531 1683 -25 43 -43 80 -40 83 5 5 3944 1012 3965 1013 10 1 12 -873 10
-4355z m-10328 4119 c236 -33 422 -95 730 -244 398 -191 698 -260 1070 -246
176 7 295 24 456 67 163 43 255 79 484 190 346 166 556 227 863 250 687 51
1359 -298 1855 -963 398 -533 623 -1187 657 -1907 19 -415 -98 -1158 -280
-1777 -376 -1275 -1089 -2391 -1975 -3093 -323 -256 -704 -454 -971 -505 -117
-22 -192 -19 -295 11 -195 56 -545 176 -624 215 -106 51 -175 69 -265 69 -90
0 -154 -18 -270 -74 -51 -25 -214 -87 -362 -138 l-268 -92 -110 0 c-118 1
-203 18 -352 73 -529 196 -1148 708 -1649 1367 -665 874 -1111 1951 -1298
3134 -52 325 -60 423 -60 695 -1 274 8 384 50 615 175 962 737 1788 1472 2164
364 186 735 247 1142 189z"/>
<path d="M3387 5310 c-120 -31 -224 -115 -279 -227 -31 -64 -33 -73 -33 -178
0 -102 2 -115 31 -176 38 -79 113 -157 186 -193 33 -16 1194 -319 3058 -798
l3006 -773 -1716 -5 -1715 -5 -58 -24 c-223 -89 -327 -345 -227 -559 52 -111
145 -193 260 -226 51 -15 628 -16 6626 -14 l6570 3 76 37 c121 60 196 157 224
289 41 197 -63 389 -256 471 l-55 23 -1745 5 -1744 5 3019 769 c1916 488 3043
779 3082 797 88 39 155 106 201 198 35 72 37 80 37 176 0 96 -2 104 -37 176
-69 141 -196 226 -346 236 -76 4 -133 -10 -4583 -1145 l-4506 -1149 -4444
1144 c-3413 878 -4461 1145 -4519 1148 -41 2 -92 0 -113 -5z"/>
</g>
</svg>
